Coordinates

Units are S.I. units (second, meters, Newtons, ...)
If the header above contains a line with 'inDegrees', this indicates whether rotational values are in degrees (yes) or radians (no).

inDegrees=no
nColumns=21
nRows=27
DataType=double
version=3
OpenSimVersion=4.6-2026-03-31-d6972f9e6
endheader
time	/jointset/ground_pelvis/pelvis_tilt/value	/jointset/ground_pelvis/pelvis_list/value	/jointset/ground_pelvis/pelvis_rotation/value	/jointset/ground_pelvis/pelvis_tx/value	/jointset/ground_pelvis/pelvis_ty/value	/jointset/ground_pelvis/pelvis_tz/value	/jointset/hip_r/hip_flexion_r/value	/jointset/hip_r/hip_adduction_r/value	/jointset/hip_r/hip_rotation_r/value	/jointset/walker_knee_r/knee_angle_r/value	/jointset/patellofemoral_r/knee_angle_r_beta/value	/jointset/ankle_r/ankle_angle_r/value	/jointset/subtalar_r/subtalar_angle_r/value	/jointset/hip_l/hip_flexion_l/value	/jointset/hip_l/hip_adduction_l/value	/jointset/hip_l/hip_rotation_l/value	/jointset/walker_knee_l/knee_angle_l/value	/jointset/patellofemoral_l/knee_angle_l_beta/value	/jointset/ankle_l/ankle_angle_l/value	/jointset/subtalar_l/subtalar_angle_l/value
142.496	-0.2276315393505507	0.0187437472021851	-0.004208766624975924	0.9073649332019755	0.9670765271855056	-0.3325356071996189	0.0794143329426379	0.03715351058323318	0.05023354157545658	0.488191077707834	0.4881910777129428	-0.08086358281357374	-0.3172956007300803	0.6634505712584751	-0.03181955329543007	0.0768317438375372	0.9857391464868638	0.9857391460075827	-0.1850508342764504	-0.5957750988445326
142.5	-0.2257146246933981	0.02147906528588803	0.001233482184630102	0.9087273912656157	0.9702369151412554	-0.3332584638068287	0.05669088181098102	0.03270124255980143	0.04800457618374996	0.4651765721635266	0.4651765723623851	-0.1160319797440296	-0.3155651989940397	0.6592980341102599	-0.02581639081313194	0.07729273438537369	0.9435134283499985	0.9435134278571959	-0.1873959157742888	-0.6010306776908646
142.504	-0.2239153596552353	0.02411909658710499	0.006742310942072334	0.91013406085193	0.9733196168969817	-0.3340303549510093	0.0344782174909083	0.02833880724769375	0.04478338662805629	0.4424970219143526	0.4424970223143151	-0.1510701626240224	-0.3125980589679146	0.654627463218455	-0.01973863167728308	0.07782306651974184	0.9007093559220875	0.9007093554467869	-0.1893605798420567	-0.6040103522563386
142.508	-0.2222176307282827	0.02668746473057918	0.0123028138750857	0.9115772549359932	0.9763137318995424	-0.3348494646574683	0.01283302615800118	0.02404704912776394	0.04053926072901357	0.420332553332377	0.4203325539327124	-0.1857180818993591	-0.3083817678324902	0.6494902694091961	-0.01355576704127594	0.07842464607191718	0.8575077324224843	0.8575077319958684	-0.1908964443555817	-0.6045348108850654
142.512	-0.2206094607489264	0.0292057056625087	0.01789848034171173	0.9130489253936218	0.9792081741375662	-0.3357128816620935	-0.008179641553316293	0.01980988689350773	0.03525831699819704	0.3988785821908111	0.3988785829825681	-0.2197342200669441	-0.3029533542802106	0.6439476820843574	-0.007244858167678815	0.07909426803149916	0.8141054305734388	0.8141054302247653	-0.1919636716424405	-0.6024517221312669
142.516	-0.2190842273243838	0.03169253047934827	0.02351164311965282	0.9145407125590703	0.9819916022845051	-0.3366166774490139	-0.02848587932312789	0.01561453352871076	0.02894549386590519	0.3783434006922242	0.3783434016585598	-0.252900517578956	-0.296401027265009	0.638071312147213	-0.0007913642314526437	0.07982381205675729	0.7707138868810607	0.7707138866351961	-0.1925317854085098	-0.5976402252308148
142.52	-0.2176414634484822	0.03416334256285226	0.02912395486465446	0.9160440113993332	0.984652416609803	-0.3375560266165749	-0.04800318119914498	0.01145139370471729	0.02162617872852024	0.3589448868922718	0.3589448880092762	-0.2850261943541399	-0.2888634488872101	0.6319429284530492	0.005810548253212575	0.08060052079571237	0.7275567266851026	0.7275567265599925	-0.1925806444474225	-0.5900155729267738
142.524	-0.2162871610271282	0.03662999824173246	0.03471686106997698	0.9175500574333639	0.9871788288243755	-0.3385253636091806	-0.06664152718512749	0.007313703201418543	0.01334738869722415	0.3409063695876043	0.3409063708255476	-0.3159504088708595	-0.2805265113912093	0.6256533710930072	0.0125581875858826	0.08140742357600381	0.6848665681394404	0.6848665681439103	-0.1921015788651661	-0.5795338074326938
142.528	-0.2150336215537544	0.03910076388616131	0.04027205447750025	0.9190500320985838	0.9895589958745065	-0.3395185663507783	-0.08430522421791667	0.00319703755923782	0.004178472886257962	0.3244517401638768	0.3244517414887945	-0.3455438674260511	-0.2716179500818352	0.6193007085999747	0.01944093655765959	0.08222397432539794	0.6428811462564046	0.642881146388697	-0.1910986347422946	-0.5661962081344066
142.532	-0.2138989533263368	0.04158043150518448	0.04577190625127194	0.92053518507085	0.9917811993556191	-0.3405291580870805	-0.1008953224472603	-0.0009012138108573959	-0.005788768959908368	0.3098000171983307	0.3098000185738664	-0.373709389279704	-0.2624000770738887	0.6129878333217176	0.02644119682221587	0.08302694979163798	0.6018389550391032	0.6018389552865085	-0.1895897785949917	-0.5500531516125048
142.536	-0.212906280790565	0.04407056127845637	0.05119986141569793	0.9219969707129304	0.9938340540930874	-0.3415505188181523	-0.1163124333427266	-0.004982345100168242	-0.01644069737758542	0.2971596410993152	0.2971596424886682	-0.4003813623108792	-0.253160826194052	0.6068196608100825	0.03353559741529538	0.08379161025748046	0.5619746266188352	0.5619746269585987	-0.1876078530716775	-0.531207021928679
142.54	-0.212082695231993	0.04656979857105011	0.05654077010241122	0.923427195438269	0.995706733826727	-0.3425760957894503	-0.1304598111659403	-0.009046728015625623	-0.02764324828023011	0.2867227797469021	0.2867227811147017	-0.4255241164919053	-0.2442033765244983	0.6009000700303891	0.04069634984923699	0.08449307842160664	0.5235142851378998	0.5235142855393594	-0.1852010555066898	-0.5098138480923533
142.544	-0.2114579638514107	0.04907419249203433	0.06178111750943609	0.9248181712255543	0.9973892042983791	-0.3435996012527503	-0.1432465734314136	-0.0130940127647975	-0.03924413235325105	0.2786599129362996	0.2786599142503203	-0.4491293654164923	-0.2358347661698476	0.5953287204738625	0.04789260467923762	0.08510785407847853	0.4866711312658158	0.4866711316935555	-0.1824327159802666	-0.4860834037412073
142.548	-0.2110630424330741	0.05157744650100902	0.06690912564755862	0.926162868092559	0.9988724524453787	-0.3446151868495306	-0.1545908992879799	-0.01712306690720733	-0.05107575561245489	0.2731149710950384	0.2731149723277645	-0.471212901507751	-0.2283540033857213	0.5901979172308679	0.05509167642051357	0.08561535829057801	0.4516415118813533	0.4516415122989841	-0.1793802009549059	-0.4602775909392464
142.552	-0.2109284800672581	0.05407105776985487	0.0719147245686854	0.9274550567746971	1.000148697806573	-0.3456175868907435	-0.1644230020924038	-0.02113162972043603	-0.0629587905678342	0.2702012990318036	0.2702013001618524	-0.4918107068373055	-0.2220402267451224	0.5855897306136889	0.06226004707088812	0.08599938268113713	0.4186016968706517	0.418601697244677	-0.1761328460462165	-0.432707015488049
142.556	-0.2110827695027427	0.05654435188275779	0.07678941378381104	0.9286894342896268	1.001211577590639	-0.3466022259598646	-0.1726877461809313	-0.02511572383099097	-0.07470633344235654	0.2699986486807009	0.2699986496940023	-0.5109746482531468	-0.2171414885320565	0.5815735067275029	0.06936411950611357	0.08624928874237563	0.3877055209710539	0.3877055212742732	-0.1727888616605141	-0.403725700530729
142.56	-0.2115506027945434	0.05898448778374791	0.08152605194064014	0.9298617284226746	1.002056308024696	-0.3475652895576037	-0.1793469300996262	-0.02906894437185541	-0.08612860467357568	0.2725513078853458	0.2725513087758122	-0.5287679716936694	-0.2138647427842988	0.5782037539985604	0.07637076930873993	0.08636078647766121	0.3590829610726115	0.359082961286637	-0.1694511876739977	-0.3737239363433561
142.564	-0.212350982782329	0.0613765610070909	0.08611862676214374	0.9309687790738493	1.002679827388337	-0.3485037602067733	-0.18438129943765	-0.03298181221623973	-0.09703815106148708	0.2778674139803382	0.2778674147497107	-0.5452608339048796	-0.2123675983524505	0.5755183299755996	0.08324781668398809	0.08633616881058633	0.3328396289650496	0.3328396290816534	-0.1662223639961203	-0.3431193921807169
142.568	-0.2134952450832524	0.06370391839596626	0.09056205531086013	0.9320085935455622	1.003080917617134	-0.3494154233013713	-0.1877922491642293	-0.03684137387196251	-0.1072554253402838	0.2859194691385552	0.2859194697953586	-0.5605261012154458	-0.2127523214222447	0.5735369379726679	0.0899645445831871	0.08618396156450625	0.3090571024625063	0.3090571024837047	-0.1631985948565431	-0.3123467501441926
142.572	-0.2149851692547539	0.06594868710665044	0.09485203740820923	0.9329803684326627	1.003260291298706	-0.3502988467698221	-0.1896030348372301	-0.04063112525158916	-0.116614469655111	0.2966460349469519	0.2966460355048878	-0.5746356412072008	-0.215062415973546	0.5722600848418385	0.09649229002665627	0.08591805047884259	0.2877940029306685	0.2877940028677339	-0.1604633661844244	-0.2818463266086872
142.576	-0.2168114242650707	0.06809240998495303	0.09898496111804735	0.933884465427927	1.003220626524258	-0.3511533402261474	-0.1898592275782052	-0.04433122823341266	-0.1249683496386814	0.3099545501568712	0.3099545506331386	-0.5876573192696849	-0.2192819242646019	0.571668731754775	0.1028050439940497	0.08555647273629952	0.2690877044234403	0.2690877042952488	-0.1580812599578926	-0.2520524997198355
142.58	-0.2189525440520656	0.07011670654833334	0.1029578660110829	0.9347223306120631	1.00296653677889	-0.3519789006740275	-0.1886282256018311	-0.04791900253952102	-0.1321940563170331	0.3257251655694752	0.3257251659833184	-0.59965286278443	-0.2253374841029396	0.5717247952003289	0.1088800267945992	0.08512006004239268	0.2529565215890202	0.2529565214200794	-0.1560926479319898	-0.2233828057505867
142.584	-0.2213744924319827	0.07200397886497997	0.1067684781235302	0.935496356816586	1.002504474207999	-0.3527761474116246	-0.1859978479292756	-0.05136973728704203	-0.1381966879613816	0.3438153916807638	0.3438153920522415	-0.6106767027625462	-0.233103137556168	0.5723724915934091	0.1146982621739254	0.0846309064929555	0.2394022397482566	0.2394022395664724	-0.1545095485132459	-0.1962280048616505
142.588	-0.2240307811000865	0.07373818577856173	0.1104153158208728	0.936209695342474	1.001842573450823	-0.3535462447311347	-0.1820741806779209	-0.05465783486499944	-0.142912730238766	0.3640652627913762	0.3640652631401284	-0.6207758564306459	-0.2424077363843792	0.5735404192584757	0.1202451380953541	0.08411051602739468	0.228412887875164	0.2284128877092554	-0.1533126038739712	-0.1709429602839895
142.592	-0.2268631016592035	0.07530563307982735	0.11389785672061	0.9368660232335009	1.000990445768985	-0.3542908158420746	-0.1769788395932443	-0.05775821388819609	-0.1463122577507057	0.3863027022354332	0.386302702579189	-0.6299908248965929	-0.2530445018545615	0.5751442446762431	0.125510893149701	0.08357769901774073	0.2199656019103088	0.2199656017868958	-0.1524492729411808	-0.147838432297814
142.596	-0.2298024567451173	0.07669569939892582	0.117216766701627	0.9374692724970238	0.9999589325595665	-0.3550118584706019	-0.1708457637389701	-0.06064786946367452	-0.1483999598248005	0.410348812529583	0.4103488128823812	-0.6383573338635371	-0.2647820563740003	0.577089838838693	0.1304909887669815	0.08304655114286109	0.2140293299128474	0.2140293298534531	-0.1518335708946636	-0.1271743137680044
142.6	-0.2327707690657513	0.07790145883418682	0.1203742014894082	0.9380233315683147	0.9987598274389984	-0.3557116722781094	-0.1638176560929285	-0.06330751616619289	-0.1492149824912472	0.4360228577041119	0.4360228580745212	-0.6459085984296564	-0.277376156056617	0.579276686395359	0.135186375084794	0.08252487182448662	0.2105671187806574	0.2105671187990959	-0.1513476210587275	-0.1091547857295365
